<svg xmlns="http://www.w3.org/2000/svg" viewBox="0 0 209.39 79.3"><defs><style>.cls-1{fill:#fff;}</style></defs><g id="Layer_2" data-name="Layer 2"><g id="Layer_1-2" data-name="Layer 1"><path class="cls-1" d="M148.82,26.17c0,2.67.91,3.28,2.2,3.85a12.19,12.19,0,0,0,3.7.87H184c2.58-.13,10.85-.05,17.36,5.55,3.42,2.93,7.49,8.42,7.49,17.83,0,18.2-15.34,24.81-25.65,24.81l-57,.09v0H89.5c-6.89-8.07,2.06-19.58,4.63-22.56l3.06,5.43.94-.23-1.24-7,4.87-6.05,6.34,8.39,1.19.05-4.05-12.71c5.59-7,5.74-9.55,5.08-10.07s-3.1.24-8.71,7.21l-13.42-1,.32,1.14L98.2,46l-4.86,6.05-7.14.39v.94l6,1.72c-3.28,4-22.28,26-50.43,24H34.07c-1.8,0-3.28-2.07-3.28-3.78V22.72a3.18,3.18,0,0,0-3.26-3.09H3.26A3.17,3.17,0,0,1,0,16.55V3.09A3.18,3.18,0,0,1,3.26,0H79a3.18,3.18,0,0,1,3.26,3.09V16.53A3.18,3.18,0,0,1,79,19.62H54.71a3.17,3.17,0,0,0-3.26,3.08V66.85c14.65-18.32,40.47-50,43.37-53.56,4.36-5.48,7.5-7.74,13.58-7.74h17.79V59.9l56.87-.08c5.55-.23,5.55-3.8,5.55-5.53,0-2.06-.42-3.17-.79-3.5a4.48,4.48,0,0,0-2.58-.63l-.65.09-.3-.06H154.72a32.3,32.3,0,0,1-12.31-2.72A22.52,22.52,0,0,1,128.6,26.19c0-9.59,4.68-17.16,13.17-21.25A30.59,30.59,0,0,1,153.84,2H206.2a3.11,3.11,0,0,1,3.19,3v13.2a3.11,3.11,0,0,1-3.19,3h-52C152.36,21.36,148.82,21.6,148.82,26.17Z"/></g></g></svg>